<svg xmlns="http://www.w3.org/2000/svg" class="logo-image" viewBox="0 0 287 47"><path fill="#3b3c3e" d="M1.9 21.6c0-4.6 3.5-8.3 7.9-8.3-.6-.2-1.3-.2-2-.2-4.4 0-7.9 3.5-7.9 7.8S2 27.1 5 28.2c-1.9-1.5-3.2-3.9-3.2-6.6z"/><path fill="#009537" d="m37.5 28.3-.5 1.9c-.3 1.2.5 2.4 1.7 2.7l11.7 2.7c1.2.3 2.4-.5 2.7-1.6v-.5c.1 0-15.9-3.8-15.9-3.8z"/><path fill="#000002" d="m52.3 27.6-8.9-2.1-2.8-.7c-1.2-.3-2.4.5-2.7 1.6l-.4 1.8.3-1.3 16 3.8v-.5c.4-1.2-.3-2.4-1.5-2.7z"/><path fill="#feffff" d="m53.8 30.8-16-3.8-.3 1.3-.3 1.4 16 3.8.3-1.3.3-1.3z"/><path fill="#a41e1d" d="M24.4 1.7s5 12.3 10 17c5 4.6 5.9 5.6 5.9 5.6s1.5 1.5 1 3.4-1.2 3.9-1.2 3.9-.4 1.3-2.3 1.9-7.6 2.6-10.4 4.1-8.9 4.5-12.2 7.7.7-28 .7-28z"/><path fill="#5a0201" d="M24.3 25.3c3.1-13 2.2-24.2-2-25.3-4.2-1-10.1 8.7-13.2 21.6s-2.2 24.2 2 25.2 10.1-8.7 13.2-21.6z"/><path fill="#010101" d="M25.7 18.2c-.2 0-.4 0-.6-.1-3.2-.4-6.2 2.4-6.7 6.3-.5 3.6 1.2 6.8 4 7.7.7-2.1 1.4-4.4 2-6.7.6-2.5 1-4.8 1.3-7.1z"/><path d="M77.2 29.8c1.1.1-.2 1-.6 1.2-1.9 1-4.1 1-6 1.7-.9.3-1.8.8-2.7 1.2-.5.3-.9.4-1.3.9 0 0-.7.8-.7.7-.2.2-.4.4-.7.6.2 0 .6-.4.7-.3 0 .4-.9.7-1.2.8-.7 0-1.6 0-1.8-.9-.3-1.1.5-2.2 1.2-2.9.3-.3.7-.6 1.1-.7.5-.2 1.1-.2 1.3-.7 0 0 0-.7.2-.8l-.1.7c0-.3.1-.5.2-.8-.2-.4.4-1.6.4-2 .2-.6.4-1.2.5-1.8.3-1.1.4-2.1.6-3.2.1-1.2.5-2.4.8-3.6 0-.2.6-2.2.8-2.2s0 .4 0 .5c.2-.6.4-1.3.5-1.9 0 0-.3.5-.3.4 0-.4.3-.9.4-1.3l.4-1.3c.3-.9.7-1.8 1.2-2.6.7-1 1.7-1.9 3-1.9.9 0 1.8.3 2.6.7 1.3.7 1.9 1.7 2 3.1 0 1.7-1.1 4.1-2.4 5.1-.5.4-1.2.7-1.9.6-.4 0-.9-.3-.7-.7s1.1-2.4 1.2-2.3c0 0-.4 1-.4 1.1.5-1 .9-2 1.2-3.1.2-.5.6-1.9.3-2.4-.4-.6-1.3 0-1.7.4-.9.9-1.4 2.2-1.9 3.3.5-1.2 1.4-3.3 2.8-3.8 1.3-.5.8 1.3.6 1.8 0-.4.4-1.7-.2-1.8-.6-.2-1.3.7-1.6 1.1-1.3 1.7-2 3.9-2.7 6-1.4 4.2-2.2 8.5-3.8 12.5 2.1-.6 4.3-1.2 6.5-1.3h2.2zm-6.8-13.9c-.4 1.1-.7 2.2-1 3.3.3-.8.5-1.6.9-2.4 1-2.2 1.9-5.7 4.4-6.3-1 .2-1.8.8-2.5 1.7-.8 1.1-1.4 2.3-1.9 3.6zm1.7 2.5c-.3.7-.5 1.5-.7 2.2zm18.1 7.7c.1.3 0 .4-.1.6l-1 1.3-1.7 2.2c-.4.6-1 1.1-1.4 1.7-.5.6-.9 1.3-1.4 1.9-.6.6-1.2 1.2-2 1.7-.5.3-1.1.3-1.6.2-.8-.2-1.6-.7-2.1-1.4-.2-.2-.3-.4-.4-.6v-.6c0-.4 0-.7.2-1.1 0-.4.3-.8.3-1.2s.2-.9.3-1.3v-1.2c0-.3.3-.5.4-.8 0 .2-.3.4-.3.5 0 .3-.2.5-.3.7 0 .3-.1.5-.2.7-.1.3-.3.5-.3.9v.9c0 .3-.1.5-.1.8v1.7c-.5-.9-.4-1.8-.3-2.8.2-1 .3-1.9.5-2.8.4-1.9 1.3-3.7 2.5-5.2 1-1.3 2.3-2.3 4-2 .6.1 1.3.4 1.8 1 .4.6.4 1.4.2 2.1-.4 1.2-1.5 2.2-2.5 3.1-.4.4-.9.7-1.3 1-.3.2-.7.3-1 .4l-.5.2c-.2 0-.3 0-.4.2-.2.3 0 .6-.1 1 0 .4-.2.8-.3 1.2-.2.8-.4 1.8-.2 2.6.4 1.6 3-.9 3.5-1.3l.9-.9.5-.5v-.2c.4-.6.9-1.2 1.4-1.8.6-.7 1.1-1.4 1.6-2.1.3-.4 1-1.6 1.5-.7zm-7.9.3c-.2.3-.3.7-.4 1 1-.5 2-1.3 2.7-2.1l.5-.7c0-.2.3-.3.3-.4V23c.2-.3 0-1.2-.4-1.1-.2 0-.4.4-.6.5l-.6.8c-.7 1-1 2.1-1.5 3.1zm18.6-9c0 .5-.5.8-.9.9s-.9-.1-1.3 0c-.2 0-.2.2-.4.2h-.9c-.4 0-1.3-.2-1.7 0 0 0-.1 0-.2.2v-.2s-.4.9-.6 1.5l.4-.7-.4 1.2c-.3.7-.6 1.4-.9 2-.6 1.3-1.1 2.7-1.6 4-.9 2.5-1.7 5.1-2.3 7.7 0 .4-.6 2.3 0 2.6 0 0 .8-.3.7-.3.2-.2.4-.3.5-.5-.1 0-.5.4-.5.3 0-.2.8-.8.9-1 .3-.3.6-.7.9-1l1.9-2.3c1.2-1.4 2.2-2.9 3.4-4.4.3-.3.8-1.4 1.2-1.5.5 0 .6.4.4.8-.3.9-1.2 1.6-1.6 2.3-.8 1.3-1.8 2.6-2.7 3.9-1 1.4-2 2.8-3.2 4.1-.5.6-1.2 1.5-2 1.9-.6.3-1.4 0-1.9-.4-.6-.4-.9-1-1-1.6 0-.2-.2-1.2 0-1.4v.5-1c0-.3 0-.5.1-.8 0-.5.2-1 .3-1.5.2-1 .5-2 .7-3s.5-2 .8-2.9c0-.2.7-2.1.9-2.1s0 .4 0 .4c.1-.5.3-1 .5-1.4 0 .2-.2.3-.2.3 0-.4.4-1.1.5-1.4l.4-1.1c.4-1 .7-2 1.2-3-.9 0-1.8 0-2.6.2-1.2.2-2.8 0-4 0-.2 0-.9 0-.7-.4 0 0 .8-.3.9-.3.6-.2 1.2-.2 1.9-.3 1.2-.1 2.5 0 3.7-.2h1.2c.3 0 .3-.3.4-.6.2-.6.5-1.2.7-1.7.3-.6.5-1.2.9-1.8.3-.4.5-.4.7-.8.4-.9.8-1.7 1.4-2.5s1.8-1 2.8-.8c.5 0 1.2.4.9 1 0 .3-.4.4-.6.6 0 0 .3-.3.3-.2 0 .2-1.2 1.9-1.3 1.8 0 0 .4-.8.5-.9-1.2 1.8-2.2 3.7-3.2 5.7 0 0 .2-.1.3-.4 0 .2-.2.3-.2.4 1.2 0 2.5 0 3.8-.1.3 0 .7-.4.8 0m-6.1 1.8c1.3-2.7 2.4-5.5 4.2-8-2.6 3.6-4.2 7.9-6 11.9-1.1 2.3-2 4.8-2.7 7.2-.3 1.1-.6 2.2-.8 3.4l.2-.6c.4-1.5.9-3 1.4-4.4 1.2-3.2 2.2-6.4 3.7-9.5m2.1-3.2c.3-.7.6-1.4.8-1.5zm-3.3 7v-.1c-.3.6-.5 1.3-.8 1.9.3-.6.5-1.2.7-1.8zm2.9-6c0-.2.2-.4.3-.7zm6.4-5.5c-.2.7-.4 1.6-.7 2.4-.3.9-.6 1.7-1 2.6-.3.9-.7 1.7-1 2.4h-2.1c.1-.6.3-1.2.4-1.9.2-.7.3-1.4.4-2 .1-.7.3-1.4.4-2q.15-1.05.3-1.8h3l.2.4zm13.1 15c.1 1.1-1.5 1.9-2.1 2.4-.9.7-1.9 1.3-2.9 1.9-.3.1-.6.3-.9.4-.4.3-.3.3-.2.8 0 .6.2 1.2.2 1.8 0 .9 0 1.8-.4 2.7-.8 2-2.3 3.3-4.5 3.2-2 0-4-1.1-3.6-3.2 0 0-.1.6-.2.6-.2-.1 0-.8 0-1 .4-1.2 1.4-2.1 2.4-2.8.5-.4 1.1-.8 1.6-1.2.4-.3 1.4-.6 1.4-1.1 0-.4-.3-1.4-.4-1.9-.1-.6-.4-1.2-.4-1.9v-1.1c-.2-.5-.3-1-.4-1.5 0-.5 0-1.1.2-1.6.3-.8 2-2.5 2.8-1.7 0-.2.4.4.4.6 0 .1-.1 1.3-.3 1.3v-.5c-.2.4-.4.9-.4 1.3v1.3-.2s.3 1.7.6 3c-.2-.9-.5-1.9-.6-2.5l.9 4.2v-.3.2c1.4-.7 2.7-1.4 4-2.2.6-.4 1.2-1 1.8-1.3.3-.1.6 0 .7.4zm-12.9 11c.4.2 1 0 1.4 0l.9-.4s-.3.2-.3.3c.4-.2.7-.5 1-.9h-.2c.3-.1.9-1.4.9-1.5.2-.8.2-1.5.2-2.3 0 0-.2 0-.2.1l.2-.2-.4.2c.2 0-.4.4-.5.5l-1 .6c-.6.4-1.3.9-1.8 1.6-.3.4-1.1 1.7-.3 2zm4 .9c.8-.4 1.3-.9 1.6-1.6-.9 1.3-2.6 2.1-4.1 2.2.9 0 1.7-.2 2.5-.5zm2.4-9.1c0-.2-.1-.5-.2-.9 0 .4.2.7.2.9m.4 3.4v-.2zm38.9-22.1c0 .6-1.1.7-1.4.7-.6.1-1.3 0-1.9.3 0 0-.1.2-.2.2s-.3 0-.4.1c-.4 0-.8.2-1.2.2l-2.3.4c-.5 0-1.5 0-1.8.5v.5c-.1.4-.4.7-.6 1.1l-1.2 2.4c-.6 1.1-1 2.3-1.5 3.5-.3.7-.7 1.3-.9 2-.1.5-.2 1.1-.4 1.7-1.1 2.6-2.3 5.1-3.3 7.7-.7 1.9-2.1 5.8-4.7 5.5-1.4-.1-2.6-1.1-3.3-2.4-.5-1-.9-2.4-1-3.5 0-.2 0-.6.1-.8.4-.4.9.3 1.2.6.8 1.1 1.4 2.4 2.5 3.3.5.4.6.4 1 0 .8-1 1.3-2.3 1.7-3.6 1-3 2.1-5.9 3.3-8.9 1.1-2.9 2.2-5.9 3.6-8.8-.5 0-1.1.2-1.6.2-.4 0-.7.2-1.1.3-.7.2-1.4.2-2.1.3-.8 0-1.6.2-2.4 0s-2-1.3-.9-1.9c.4-.2.9-.3 1.2-.3 1.5-.3 3-.5 4.6-.6q.9 0 1.8-.3c.3 0 .6-.2 1-.2.3 0 .8 0 1.1-.1.4-.3.4-.8.6-1 .4-.5 1.4-.4 1.9-.3.6.2.7.4 1.1.8.2.2 0 .1.2.2h6.9s0-.2.3-.2q.3 0 .3.3zM136.6 18c.8-1.5 1.3-3.1 2.2-4.6-.7 1.1-1.8 2.6-2.2 3.7-.6 1.3-2 5.1-2.6 6.7.6-1.4 2.2-5 2.7-5.8zm16.5 8.3c0 .7-.6 1.5-.9 2.1-.4 1-.9 1.8-1.4 2.7-.6 1-1.2 1.9-1.9 2.7-.6.7-1.4 1.7-2.3 1.8-1.1.2-2-.7-2.3-1.7-.8-1.9-.2-3.9.4-5.7v-.5c-.3.5-.8 1.1-1.1 1.5-.4.6-.7 1.2-1.1 1.8-.2.3-2.8 3.5-3.2 2.9l.4-.2c-.4.3-.9.3-1.3.2h.1c-.7 0-1.3-1.1-1.5-1.6-.3-.9-.2-1.9 0-2.8.4-1.9 1.1-3.9 2.2-5.5.3-.4.6-.8 1-1.1.3-.2.5-.3.8-.4.5-.4.9-.8 1.6-.8 1.6 0 2.2 1.8 2.5 3 .8-1 2.1-2.3 3.3-.9.6.8.2 1.3-.1 2-.6 1.1-1.1 2.5-1.3 3.6 0 0 .1-.6.3-.6.3 0-2 7.2 1.2 3.1 1-1.2 1.9-2.6 2.7-3.9.4-.6.8-1.2 1.2-1.9.2-.3.8-.9.8-.2zm-9.2.2q.2-.3.2-.5c0-.3-.6-2-.5-2.1 0 0 .3.9.4 1 0-.4-.2-1.6-.8-1.6-1.1 0-1.9 2-2.2 2.7-.6 1.4-1.2 3-1.5 4.5 0-.5 2-6.3 2.5-6.2-.4 0-2.1 5-2.2 5.5 0 .3-.6 1.9 0 2.1.3 0 1.1-.9 1.2-1.1.6-.7 1.2-1.5 1.7-2.3l.8-1.2c.1-.2.3-.4.4-.7zm.8 1.6.3-.8-.2.2-.1.5zm-.5-2v-.3zm19.4-.3c.7-.8.8.4.7.9-.2.7-.6 1.3-1 2-1 1.5-1.8 3.2-2.8 4.7-1.2 1.7-2.4 3.4-3.9 4.8-1.2 1.2-3 2.1-4.5.7-1.3-1.2-1.3-3.5-1.2-5.2.1-1.8.6-3.5 1-5.2 0 0 0-.8.2-1.1v.5c0-.2.1-.4.2-.7 0-.6.4-1.6.5-2.2.2-.7.5-1.5.7-2.2.5-1.4 1-2.7 1.4-4.1s1.1-2.7 1.7-4c.3-.6.6-1.2 1-1.8 0-.2.8-1.5 1-1.5l-.3.5 1-1.8c.2-.2.4-.7.5-.9l.7-1c.4-.5 1-1.3 1.7-1.5 1.4-.4 2.6 1 2.8 2.3v.2c.2 2-1 4.3-1.8 5.9-.5 1-1.1 2.3-1.9 3.1-.5.6-.8 1.2-1.3 2-1.2 2-2.5 3.9-4 5.7-.4.4-.6.7-.7 1.3-.2.6-.4 1.2-.5 1.9-.2.6-.4 1.3-.5 1.9 0 .3-.4 1.2-.3 1.2 0 .4-.2.8-.2 1.2l.3-1c.2.3 0 1.2-.1 1.5v1.5s0 2 .8 2.1c1.1.1 2.2-1.5 2.8-2.2 1.3-1.6 2.4-3.3 3.5-5.1.6-.9 1.1-1.8 1.7-2.7.4-.6.6-1.4 1.1-1.9zm-4-11.4c-1.2 2.8-2.1 5.9-3 8.7 2.4-3.8 5.1-7.8 6.5-12.1-.5 1.5-1.3 3-2.1 4.4-.4.8-.9 1.6-1.3 2.4-.3.5-.9 1.2-1.1 1.7.3-.8 1-1.8 1.5-2.6l1.3-2.5c.8-1.5 1.9-3.4 2-5.2 0-1.7-1.4.2-1.6.5-.9 1.4-1.5 3-2.2 4.5zm-1.1-2.3c-.4.7-.7 1.3-1 2v.1c.7-1.3 1.5-2.5 2.2-3.8-.3.6-.9 1.1-1.2 1.7m-6 16.6s0-.1 0 0c-.1 0-.3.7-.4 1.4-.2 1.1-.4 2.3-.4 3.4v-1.6c.2-1 .2-2.2.6-3.1zm26.5-2.4c0 .9-.6 1.3-1.1 1.9-.4.6-.9 1.2-1.4 1.7-.6.7-1.2 1.4-2 2 0 0-1.5.9-1.6 1-.3.1.2 0-.2.3-.3.3-.7.4-1 .5-.4.2-.8.5-1.2.5-.2 0-1.6-.5-1.4-.8h.2c-.2 0-.3-.2-.4-.4v.1s-1-1.2-1.1-1.4c-.3-.6-.6-1.3-.7-2l-1.5 2.6c-.4.6-.5 1.6-1.3 1.8 0 0-.9.2-1.2 0 0 0 .4.1.6.1-.3 0-.6-.1-.7-.3s-.5-.4-.6-.5c-.2-.3-.3-.7-.3-1.1 0-.7.2-1.4.4-2.1.4-1.6.8-3.2 1.1-4.8.3-1.5.7-3 1.2-4.4.3-.8.5-1.6.8-2.3 0-.2.6-1.7.7-1.7l-.2.6c.2-.6.4-1.2.7-1.9 0-.2.2-.6.3-.9l.6-1.3c.3-.8.7-1.5 1.1-2.2.6-1.1 1.5-2.4 2.7-2.9 1.5-.7 2.8.5 3.5 1.8.4.7.4 1.3.2 2.1-.4 1.3-1.2 2.8-2.1 3.8-.7.8-1.2 2-1.9 3-.9 1.3-1.7 2.6-2.7 3.8-.4.5-.9 1.1-1.3 1.6-.5.6-.7 1.1-.9 1.8-.4 1.5-.9 3-1.2 4.5l.9-1.5c0-.1.6-.8.6-.8.2-.4.4-.7.6-1l-.6.8c0-.4.6-1.2.9-1.5.4-.6.8-1.1 1.2-1.7.9-1.2 1.8-2.3 2.9-3.2 1.1-1 3.2-2.7 4.7-1.4s.5 2.8-.6 4c-1 1-2.3 1.8-3.5 2.5-.7.4-1.3.7-2 1-.1 0-.6.2-.7.3 0 0 .1.7 0 .7l-.1-.2c.2 1.1.6 2.4 1.3 3.2-.2-.3-.9-1.8-1-2.1 0 .4 1.2 2.4 1.6 2.4h.3c1 0 1.9-1.1 2.6-1.7.7-.5 1.7-1.1 2.3-1.7h-.2c0-.2 2-2.5 2.1-2.6.3-.3.7-.4.7.2zm-7-15.7c-1.2 1.7-2 3.7-2.7 5.7-.8 2-1.4 4.1-2 6.2 1.8-2.3 3.4-4.7 4.8-7.3.4-.6.7-1.3 1-2-.3.5-.5 1-.8 1.4-.5.9-1 1.8-1.5 2.6l-.7 1.1c-.2.2-.4.5-.5.7.2-.5.6-.9.9-1.4l.9-1.4c.6-1 1.2-2.1 1.7-3.2.4-.7 1.3-2.6.8-3.3-.6-.8-1.5.4-1.8.8zm-3.2 16.5c1.6-.6 3.1-2 4.3-3.2.3-.3 2.1-2.4 1.6-2.8s-2.1 1.4-2.4 1.8c-1.2 1.3-2.3 2.8-3.4 4.2zm.2-11.5c-.8 1.9-1.3 4.1-1.7 6.1s0 .2 0 .2c.4-1.6.9-3.1 1.4-4.7.4-1.3.8-2.7 1.3-4 0-.2.5-.9.7-1.3-.2.3-.5.7-.5.8-.4 1-.8 1.9-1.2 2.8zm33.7-5.7c1.7-.5 3.1 1.3 3.2 2.9v.7-.4c0 .6 0 1.1-.1 1.6 0-.2.2-.4.2-.4 0 .3-.2.7-.2 1-.2.8-.5 1.5-.8 2.2-.6 1.4-1.4 2.6-2.4 3.7-1 1.2-2 2.2-3.2 3.2-.4.4-.9.5-1.3.7s-.7.6-1.2.9c-1.2.7-2.6 1.6-3.9 1.8h-1.3c-.3-.2-.4 0-.4.3-.5.6-.8 1.8-1 2.5-.6 1.7-1.3 3.5-1.5 5.3v-.1c-.6.6-2.3.9-2.6-.1v-.2.1c-.5-.6 0-2 .2-2.6l.7-3.3c.2-1 .5-2 .9-2.8.1-.3.3-.6.4-.9 0 0 .2-.9.3-.9v.1-.3c-.1.3 0-.5 0-.5.1-.4.3-.8.4-1.2.3-.6.4-1.2.5-1.8 0-.3 1-2.9 1.3-2.8v.3c.1-.3.3-.6.4-.9 0 0 0 .1-.1.2 0 0 1.7-3.8 1.9-4.2.3-.7.6-1.5 1-2.1.2-.3.4-.4.5-.5 0-.1.1-.4.2-.5.2-.3.5-1.1.9-1.2.7-.3 1.2.6 1.3 1.1s0 .7 0 1.1-.5 1.2-.7 1.2v-.3c-.9 1.7-1.7 3.5-2.5 5.2 0-.2 1.7-3.7 1.8-3.7 0 0-1.8 4.1-2 4.5-.6 1.5-1.2 3-1.6 4.5.7-1.5 1.5-2.9 2.4-4.3.8-1.2 1.8-2.3 2.7-3.4 0 0 .3-.6.4-.6 0 0-.4.5-.3.5l.4-.6c0-.4.8-1.1 1.1-1.4.4-.5.9-.9 1.3-1.3.7-.7 1.7-1.9 2.7-2.2zm-.1 3.9c.2-3.1-3 1-3.6 1.7-1.7 2.1-3.6 4.4-5 6.6 0 0 0-.1.2-.1 0 0-1 2-1.2 2.1-.4.8-.9 1.7-1.3 2.5.1 0 1.4-.6 1.5-.6 0 0-.6.4-.9.5 3.2-1.3 5.9-3.9 7.9-6.8-.6.9-1.4 1.8-2.1 2.6-.5.5-1 1-1.5 1.4-.3.2-.8.5-1.1.8.3-.4.9-.7 1.2-1 .4-.3.8-.7 1.1-1 .8-.8 1.5-1.7 2.1-2.6 1.2-1.8 2.5-3.9 2.7-6.1m-15.7 16.5c-.2.6-.3 1.4-.4 2 .5-1.8 1.2-3.7 1.8-5.6-.4 1.2-1.1 2.2-1.4 3.6m-.6 4.1v-1.1l-.3 1.5c0-.2.3-.3.3-.4m7-15.4-.6 1.7.7-1.7zm24.8 7.3c0 .7-.6 1.5-.9 2.1-.4 1-.9 1.8-1.4 2.7-.6 1-1.2 1.9-1.9 2.7-.6.7-1.4 1.7-2.3 1.8-1.1.2-2-.7-2.3-1.7-.8-1.9-.2-3.9.4-5.7v-.5c-.3.5-.8 1.1-1.1 1.5-.4.6-.7 1.2-1.1 1.8-.2.3-2.8 3.5-3.2 2.9l.4-.2c-.4.3-.9.3-1.3.2h.1c-.7 0-1.3-1.1-1.5-1.6-.3-.9-.2-1.9 0-2.8.4-1.9 1.1-3.9 2.2-5.5.3-.4.6-.8 1-1.1.3-.2.5-.3.8-.4.5-.4.9-.8 1.6-.8 1.6 0 2.2 1.8 2.5 3 .8-1 2.1-2.3 3.3-.9.6.8.2 1.3-.1 2-.6 1.1-1.1 2.5-1.3 3.6 0 0 .1-.6.3-.6.3 0-2 7.2 1.2 3.1 1-1.2 1.9-2.6 2.7-3.9.4-.6.8-1.2 1.2-1.9.2-.3.8-.9.8-.2zm-9.2.2q.2-.3.2-.5c0-.3-.6-2-.5-2.1 0 0 .3.9.4 1 0-.4-.2-1.6-.8-1.6-1.1 0-1.9 2-2.2 2.7-.6 1.4-1.2 3-1.5 4.5 0-.5 2-6.3 2.5-6.2-.4 0-2.1 5-2.2 5.5 0 .3-.6 1.9 0 2.1.3 0 1.1-.9 1.2-1.1.6-.7 1.2-1.5 1.7-2.3l.8-1.2c.1-.2.3-.4.4-.7zm.7 1.6.3-.8-.2.2-.1.5zm-.5-2v-.3zm19.4-.3c.7-.8.8.4.7.9-.2.7-.6 1.3-1 2-1 1.5-1.8 3.2-2.8 4.7-1.2 1.7-2.4 3.4-3.9 4.8-1.2 1.2-3 2.1-4.5.7-1.3-1.2-1.3-3.5-1.2-5.2.1-1.8.6-3.5 1-5.2 0 0 0-.8.2-1.1v.5c0-.2.1-.4.2-.7 0-.6.4-1.6.5-2.2.2-.7.5-1.5.7-2.2.5-1.4 1-2.7 1.4-4.1s1.1-2.7 1.7-4c.3-.6.6-1.2 1-1.8 0-.2.8-1.5 1-1.5l-.3.5 1-1.8c.2-.2.4-.7.5-.9l.7-1c.4-.5 1-1.3 1.7-1.5 1.4-.4 2.6 1 2.8 2.3v.2c.2 2-1 4.3-1.8 5.9-.5 1-1.1 2.3-1.9 3.1-.5.6-.8 1.2-1.3 2-1.2 2-2.5 3.9-4 5.7-.4.4-.6.7-.7 1.3-.2.6-.4 1.2-.5 1.9-.2.6-.4 1.3-.5 1.9 0 .3-.4 1.2-.3 1.2 0 .4-.2.8-.2 1.2l.3-1c.2.3 0 1.2-.1 1.5v1.5s0 2 .8 2.1c1.1.1 2.2-1.5 2.8-2.2 1.3-1.6 2.4-3.3 3.5-5.1.6-.9 1.1-1.8 1.7-2.7.4-.6.6-1.4 1.1-1.9zm-4-11.4c-1.2 2.8-2.1 5.9-3 8.7 2.4-3.8 5.1-7.8 6.5-12.1-.5 1.5-1.3 3-2.1 4.4-.4.8-.9 1.6-1.3 2.4-.3.5-.9 1.2-1.1 1.7.3-.8 1-1.8 1.5-2.6l1.3-2.5c.8-1.5 1.9-3.4 2-5.2 0-1.7-1.4.2-1.6.5-.9 1.4-1.5 3-2.2 4.5zm-1-2.3c-.4.7-.7 1.3-1 2v.1c.7-1.3 1.5-2.5 2.2-3.8-.3.6-.9 1.1-1.2 1.7m-6.1 16.6s0-.1 0 0c-.1 0-.3.7-.4 1.4-.2 1.1-.4 2.3-.4 3.4v-1.6c.2-1 .2-2.2.6-3.1zm21.9-2.6c.1.3 0 .4-.1.6l-1 1.3-1.7 2.2c-.4.6-1 1.1-1.4 1.7-.5.6-.9 1.3-1.4 1.9-.6.6-1.2 1.2-2 1.7-.5.3-1.1.3-1.6.2-.8-.2-1.6-.7-2.1-1.4-.2-.2-.3-.4-.4-.6v-.6c0-.4 0-.7.2-1.1 0-.4.3-.8.3-1.2s.2-.9.3-1.3v-1.2c0-.3.3-.5.4-.8 0 .2-.3.4-.3.5 0 .3-.2.5-.3.7 0 .3-.1.5-.2.7-.1.3-.3.5-.3.9v.9c0 .3-.1.5-.1.8v1.7c-.5-.9-.4-1.8-.3-2.8.2-1 .3-1.9.5-2.8.4-1.9 1.3-3.7 2.5-5.2 1-1.3 2.3-2.3 4-2 .6.1 1.3.4 1.8 1 .4.6.4 1.4.2 2.1-.4 1.2-1.5 2.2-2.5 3.1-.4.4-.9.7-1.3 1-.3.2-.7.3-1 .4l-.5.2c-.2 0-.3 0-.4.2-.2.3 0 .6-.1 1 0 .4-.2.8-.3 1.2-.2.8-.4 1.8-.2 2.6.4 1.6 3-.9 3.5-1.3l.9-.9.5-.5v-.2c.4-.6.9-1.2 1.4-1.8.6-.7 1.1-1.4 1.6-2.1.3-.4 1-1.6 1.5-.7zm-7.9.3c-.2.3-.3.7-.4 1 1-.5 2-1.3 2.7-2.1l.5-.7c0-.2.3-.3.3-.4V23c.2-.3 0-1.2-.4-1.1-.2 0-.4.4-.6.5l-.6.8c-.7 1-1 2.1-1.5 3.1zm18.3.1c.1 1.1-1.5 1.9-2.1 2.4-.9.7-1.9 1.3-2.9 1.9-.3.1-.6.3-.9.4-.4.3-.3.3-.2.8 0 .6.2 1.2.2 1.8 0 .9 0 1.8-.4 2.7-.8 2-2.3 3.3-4.5 3.2-2 0-4-1.1-3.6-3.2 0 0-.1.6-.2.6-.2-.1 0-.8 0-1 .4-1.2 1.4-2.1 2.4-2.8.5-.4 1.1-.8 1.6-1.2.4-.3 1.4-.6 1.4-1.1 0-.4-.3-1.4-.4-1.9-.1-.6-.4-1.2-.4-1.9v-1.1c-.2-.5-.3-1-.4-1.5 0-.5 0-1.1.2-1.6.3-.8 2-2.5 2.8-1.7 0-.2.4.4.4.6 0 .1-.1 1.3-.3 1.3v-.5c-.2.4-.4.9-.4 1.3v1.3-.2s.3 1.7.6 3c-.2-.9-.5-1.9-.6-2.5l.9 4.2v-.3.2c1.4-.7 2.7-1.4 4-2.2.6-.4 1.2-1 1.8-1.3.3-.1.6 0 .7.4zm-13 11c.4.2 1 0 1.4 0l.9-.4s-.3.2-.3.3c.4-.2.7-.5 1-.9h-.2c.3-.1.9-1.4.9-1.5.2-.8.2-1.5.2-2.3 0 0-.2 0-.2.1l.2-.2-.4.2c.2 0-.4.4-.5.5l-1 .6c-.6.4-1.3.9-1.8 1.6-.3.4-1.1 1.7-.3 2zm4.1.9c.8-.4 1.3-.9 1.6-1.6-.9 1.3-2.6 2.1-4.1 2.2.9 0 1.7-.2 2.5-.5zm2.3-9.1c0-.2-.1-.5-.2-.9 0 .4.2.7.2.9m.4 3.4v-.2zm16.8-15.3c0 .5-.5.8-.9.9s-.9-.1-1.3 0c-.2 0-.2.2-.4.2h-.9c-.4 0-1.3-.2-1.7 0 0 0-.1 0-.2.2v-.2s-.4.9-.6 1.5l.4-.7-.4 1.2c-.3.7-.6 1.4-.9 2-.6 1.3-1.1 2.7-1.6 4-.9 2.5-1.7 5.1-2.3 7.7 0 .4-.6 2.3 0 2.6 0 0 .8-.3.7-.3.2-.2.4-.3.5-.5-.1 0-.5.4-.5.3 0-.2.8-.8.9-1 .3-.3.6-.7.9-1l1.9-2.3c1.2-1.4 2.2-2.9 3.4-4.4.3-.3.8-1.4 1.2-1.5.5 0 .6.4.4.8-.3.9-1.2 1.6-1.6 2.3-.8 1.3-1.8 2.6-2.7 3.9-1 1.4-2 2.8-3.2 4.1-.5.6-1.2 1.5-2 1.9-.6.3-1.4 0-1.9-.4-.6-.4-.9-1-1-1.6 0-.2-.2-1.2 0-1.4v.5-1c0-.3 0-.5.1-.8 0-.5.2-1 .3-1.5.2-1 .5-2 .7-3s.5-2 .8-2.9c0-.2.7-2.1.9-2.1s0 .4 0 .4c.1-.5.3-1 .5-1.4 0 .2-.2.3-.2.3 0-.4.4-1.1.5-1.4l.4-1.1c.4-1 .7-2 1.2-3-.9 0-1.8 0-2.6.2-1.2.2-2.8 0-4 0-.2 0-.9 0-.7-.4 0 0 .8-.3.9-.3.6-.2 1.2-.2 1.9-.3 1.2-.1 2.5 0 3.7-.2h1.2c.3 0 .3-.3.4-.6.2-.6.5-1.2.7-1.7.3-.6.5-1.2.9-1.8.3-.4.5-.4.7-.8.4-.9.8-1.7 1.4-2.5s1.8-1 2.8-.8c.5 0 1.2.4.9 1 0 .3-.4.4-.6.6 0 0 .3-.3.3-.2 0 .2-1.2 1.9-1.3 1.8 0 0 .4-.8.5-.9-1.2 1.8-2.2 3.7-3.2 5.7 0 0 .2-.1.3-.4 0 .2-.2.3-.2.4 1.2 0 2.5 0 3.8-.1.3 0 .7-.4.8 0m-6 1.8c1.3-2.7 2.4-5.5 4.2-8-2.6 3.6-4.2 7.9-6 11.9-1.1 2.3-2 4.8-2.7 7.2-.3 1.1-.6 2.2-.8 3.4l.2-.6c.4-1.5.9-3 1.4-4.4 1.2-3.2 2.2-6.4 3.7-9.5m2.1-3.2c.3-.7.6-1.4.8-1.5zm-3.3 7v-.1c-.3.6-.5 1.3-.8 1.9.3-.6.5-1.2.7-1.8zm2.9-6c0-.2.2-.4.3-.7zm9.5 9.1c.1.6-.4 1.3-.8 1.7-.5.8-1.1 1.6-1.7 2.3-.6.9-1.4 2.2-2.6 2.5-.3 0-1.5-.3-1.4-.5-.3-.1 0 .2-.4-.1-.3-.2-.5-.5-.7-.8-.4-.5-.8-.9-.9-1.5 0-.2 0-1.3.2-1.3s0 .2 0 .2V28v.1c-.1 0 .5-2.3.5-2.5.3-.7.4-1.4 1-1.8.5-.3 1.1-.3 1.7 0 .3 0 1 .4 1 .7s-.2.2-.3.3h.1l-.4.7v-.3c-.6 1-1.1 2.1-1.5 3.2.2-.4 1-2.2 1.1-2.2s-2.1 3.9-1 4.4c.5.3 1.4-.5 1.7-.8.6-.5 1.4-1.1 1.9-1.6h-.2c-.1-.2 1.5-2.3 1.8-2.5.2-.2.7-.3.7.1zm-5.6-4-.2-.3s-.1-1.1.2-.9c0 0 .4-.6.2-.2.3-.4.5-.8.8-1.3l-.4.6c.3-.6.7-1.8.8-2v-.4c-.7-.3-.2-.6 0-.9h-.1c-.1-.1.3-.2.4-.3.4-.2 1 0 1.4.1.4.2.7.7.8 1.1s-.2.9-.5 1.2c-.1.1-.4.2-.5.4-.2.2-.2.5-.3.7 0 .2-.3.2-.4.4-.1 0-.1.2 0 .3-.1 0-.2.1-.3.2-.3.5-.5.8-.9 1.1.4-.2.6-.4.9-.8.3-.3.5-.5.9-.7-.3.4-.4.8-.8 1s0-.2-.4.2c0 0 .2 0 0 0-.3.3-.6.7-1 .8-.2 0-.3.2-.5 0-.2-.1-.1-.3-.2-.4zm-.6 7.6v.3-.2zm1.1-9.5V20zm16.1 6.2c.1.8-1.1 1.9-1.5 2.4-.7.9-1.3 1.9-2.1 2.7-.6.6-1.5 1.6-2.4 1.3-.2 0-1.4-.7-1.3-.9s-.2-.1-.2-.1c.2.3-.2 0-.2 0-.2-.2-.3-.4-.4-.6-.2-.4-.2-.7-.2-1.1V29c0-.7 0-1.4.3-2.1 0-.2.7-2 1-1.9v.3l.4-.9s0 .1-.2.2c0 0 .4-.8.5-.9-.6.7-1.2 1.5-1.7 2.3-.4.5-.9.9-1.2 1.4-.7 1.2-1.5 2.2-2 3.4v-.3c-.7.7-1.6-.1-1.9-.7-.3-.5-.2-.9-.1-1.5 0-.5 0-1 .2-1.6.2-.7.4-1.3.7-2 .2-.7.4-1.3.7-2 .2-.4.5-.9.6-1.4 0-.4 0-.6.4-.8s.8-.2 1.2-.1c.5 0 1.4.6.9 1.4-.2.3-.6.6-.9.9-.3.4-.3.5-.4.9 0 .3-.3.5-.4.7-.2.4-.3.8-.4 1.2v.7c0 .7-.3 1.3-.4 2 0-.1.3-.4.3-.3l-.3.6 1.9-2.8c-.4.5-.7.9-.7.9s3.7-4.9 4.2-5.3c.9-.9 2.1-.8 2.6.7.5 1.6-1.2 2.7-1.9 3.8-.4.6-.8 1.4-1.1 2.1-.2.4-.7 1.3-.8 2 0-.5.4-1.1.5-1.4.3-.7.6-1.2 1.1-1.7-.2.4-.5.8-.7 1.2l.2-.2s-.3 1.1-.3 1.2c-.1.4-.3.8-.3 1.2v.5h.3c.5-.2 1-.6 1.3-.9.8-.6 1.5-1.3 2.2-1.9.5-.5 1.2-1 1.7-1.6.2-.3.6-.8.8 0zm9.9-.3c.1.3 0 .4-.1.6l-1 1.3-1.7 2.2c-.4.6-1 1.1-1.4 1.7-.5.6-.9 1.3-1.4 1.9-.6.6-1.2 1.2-2 1.7-.5.3-1.1.3-1.6.2-.8-.2-1.6-.7-2.1-1.4-.2-.2-.3-.4-.4-.6v-.6c0-.4 0-.7.2-1.1 0-.4.3-.8.3-1.2s.2-.9.3-1.3v-1.2c0-.3.3-.5.4-.8 0 .2-.3.4-.3.5 0 .3-.2.5-.3.7 0 .3-.1.5-.2.7-.1.3-.3.5-.3.9v.9c0 .3-.1.5-.1.8v1.7c-.5-.9-.4-1.8-.3-2.8.2-1 .3-1.9.5-2.8.4-1.9 1.3-3.7 2.5-5.2 1-1.3 2.3-2.3 4-2 .6.1 1.3.4 1.8 1 .4.6.4 1.4.2 2.1-.4 1.2-1.5 2.2-2.5 3.1-.4.4-.9.7-1.3 1-.3.2-.7.3-1 .4l-.5.2c-.2 0-.3 0-.4.2-.2.3 0 .6-.1 1 0 .4-.2.8-.3 1.2-.2.8-.4 1.8-.2 2.6.4 1.6 3-.9 3.5-1.3l.9-.9.5-.5v-.2c.4-.6.9-1.2 1.4-1.8.6-.7 1.1-1.4 1.6-2.1.3-.4 1-1.6 1.5-.7zm-8 .3c-.2.3-.3.7-.4 1 1-.5 2-1.3 2.7-2.1l.5-.7c0-.2.3-.3.3-.4V23c.2-.3 0-1.2-.4-1.1-.2 0-.4.4-.6.5l-.6.8c-.7 1-1 2.1-1.5 3.1z"/></svg>